#!OML:ASF F:\VICON\USERDATA\INSTALL\rory3\rory3.ASF
:FULLY-SPECIFIED
:DEGREES
2422
root -1.32734 17.6511 -3.31108 14.4994 -3.70163 0.795407
lowerback 14.9772 -1.19353 -4.07203
upperback 4.80782 -2.11776 0.933436
thorax -3.10586 -1.06334 3.64756
lowerneck -12.6336 -12.2041 -16.3386
upperneck 7.58586 -15.695 16.6469
head 7.05721 -7.13436 6.17869
rclavicle -7.35503e-015 -1.05356e-014
rhumerus -10.2911 19.8821 -87.1235
rradius 36.8164
rwrist 22.827
rhand -22.5902 5.05448
rfingers 7.12502
rthumb 3.83885 -24.8907
lclavicle -7.35503e-015 -1.05356e-014
lhumerus -18.8506 -3.08881 84.1248
lradius 35.3083
lwrist 1.38873
lhand -15.2271 30.1535
lfingers 7.12502
lthumb 10.9457 59.8482
rfemur -36.0665 -1.1717 23.889
rtibia 38.7248
rfoot -14.6267 -3.58498
rtoes 12.3051
lfemur -24.8554 -0.888158 -12.4194
ltibia 56.9369
lfoot 0.839832 -11.3768
ltoes -18.5153
2423
root -1.33612 17.6325 -3.21689 13.7971 -3.64763 0.792534
lowerback 14.462 -1.31188 -3.82427
upperback 5.02217 -2.21549 0.943654
thorax -2.60492 -1.12782 3.50941
lowerneck -12.8039 -12.2022 -16.151
upperneck 7.40506 -15.6862 16.6835
head 7.01583 -7.11743 6.15643
rclavicle 1.59028e-014 -1.19271e-014
rhumerus -9.51173 19.7635 -86.4197
rradius 36.9874
rwrist 22.9814
rhand -22.2401 4.95433
rfingers 7.12502
rthumb 4.17692 -24.9845
lclavicle 1.59028e-014 -1.19271e-014
lhumerus -17.8326 -4.27515 84.2586
lradius 36.3544
lwrist 1.4542
lhand -14.7144 31.3077
lfingers 7.12502
lthumb 11.4402 60.9756
rfemur -35.1899 -1.32084 23.9409
rtibia 39.2096
rfoot -15.264 -3.46637
rtoes 11.8428
lfemur -24.8935 -1.0211 -12.3056
ltibia 58.3433
lfoot 0.85775 -11.4475
ltoes -18.5333
2424
root -1.34718 17.6124 -3.12986 13.1067 -3.72281 0.664362
lowerback 14.2629 -1.41022 -3.70205
upperback 4.99729 -2.31654 1.09845
thorax -2.51395 -1.1807 3.61166
lowerneck -12.8106 -12.1262 -16.2126
upperneck 7.39943 -15.5707 16.6931
head 7.00168 -7.06227 6.18853
rclavicle -1.10325e-014 3.77691e-015
rhumerus -9.15906 19.9543 -85.7188
rradius 37.3409
rwrist 22.901
rhand -21.985 4.84794
rfingers 7.12502
rthumb 4.4233 -25.0859
lclavicle -1.10325e-014 3.77691e-015
lhumerus -17.1997 -5.14404 84.4469
lradius 37.2815
lwrist 1.15016
lhand -14.3561 31.6433
lfingers 7.12502
lthumb 11.7858 61.2917
rfemur -34.3156 -1.28223 24.0912
rtibia 39.6716
rfoot -15.8593 -3.35783
rtoes 11.721
lfemur -24.9172 -1.06484 -12.0823
ltibia 59.7205
lfoot 0.671956 -11.2148
ltoes -18.6584
2425
root -1.36023 17.5857 -3.04663 12.4658 -3.96355 0.603905
lowerback 14.2747 -1.43562 -3.90883
upperback 4.76156 -2.37422 1.3242
thorax -2.74332 -1.20251 3.98192
lowerneck -12.6963 -11.994 -16.2828
upperneck 7.55126 -15.3855 16.5282
head 6.98847 -6.98711 6.18098
rclavicle -3.30976e-014 1.60022e-014
rhumerus -9.12401 20.3489 -85.0133
rradius 37.7213
rwrist 22.5824
rhand -22.0195 4.64044
rfingers 7.12502
rthumb 4.38993 -25.2941
lclavicle -3.30976e-014 1.60022e-014
lhumerus -16.9422 -5.79359 84.7194
lradius 38.2033
lwrist 1.1769
lhand -14.5599 30.7227
lfingers 7.12502
lthumb 11.5891 60.3822
rfemur -33.5301 -1.10883 24.1662
rtibia 40.1102
rfoot -16.3973 -3.30443
rtoes 11.5573
lfemur -24.9722 -0.969388 -11.9649
ltibia 61.0279
lfoot 0.29761 -10.6972
ltoes -18.9534
2426
root -1.37342 17.5621 -2.96028 11.9554 -4.31519 0.627438
lowerback 14.0446 -1.41792 -4.0853
upperback 4.56942 -2.36704 1.41497
thorax -2.8102 -1.1954 4.17202
lowerneck -12.7086 -11.9389 -16.2318
upperneck 7.69013 -15.3221 16.4446
head 7.01176 -6.95633 6.1555
rclavicle 4.37326e-014 6.06293e-015
rhumerus -8.90828 20.5069 -84.3666
rradius 38.0305
rwrist 22.2128
rhand -22.0832 4.70974
rfingers 7.12502
rthumb 4.32847 -25.226
lclavicle 4.37326e-014 6.06293e-015
lhumerus -16.6921 -6.51185 84.7997
lradius 39.3364
lwrist 0.885644
lhand -14.6766 29.6374
lfingers 7.12502
lthumb 11.4766 59.3032
rfemur -32.8633 -0.86783 24.1543
rtibia 40.5421
rfoot -16.9187 -3.27368
rtoes 11.3851
lfemur -25.1377 -0.78139 -11.9775
ltibia 62.2008
lfoot -0.240876 -10.1353
ltoes -20.3383
2427
root -1.38498 17.5474 -2.8705 11.5847 -4.66173 0.713642
lowerback 13.5267 -1.40385 -4.1819
upperback 4.44861 -2.34476 1.41768
thorax -2.65558 -1.18729 4.20781
lowerneck -12.8585 -11.9195 -16.1133
upperneck 7.80439 -15.3116 16.451
head 7.06314 -6.93739 6.1346
rclavicle 2.38293e-014 -2.22639e-014
rhumerus -8.4677 20.3762 -83.7719
rradius 38.2002
rwrist 22.0312
rhand -22.0072 4.72464
rfingers 7.12502
rthumb 4.40179 -25.2096
lclavicle 2.38293e-014 -2.22639e-014
lhumerus -16.2058 -7.39297 84.7547
lradius 40.5015
lwrist -0.0546358
lhand -14.4147 29.4512
lfingers 7.12502
lthumb 11.7292 59.1028
rfemur -32.282 -0.582131 24.0293
rtibia 40.9035
rfoot -17.4131 -3.16954
rtoes 11.5374
lfemur -25.4171 -0.642167 -12.071
ltibia 63.2173
lfoot -0.766099 -9.65304
ltoes -20.4141
